<svg width="30" height="30" viewBox="0 0 30 30" fill="none" xmlns="http://www.w3.org/2000/svg">
<path fill-rule="evenodd" clip-rule="evenodd" d="M15 30C23.2843 30 30 23.2843 30 15C30 6.71573 23.2843 0 15 0C6.71573 0 0 6.71573 0 15C0 23.2843 6.71573 30 15 30ZM15 21.3158C18.4881 21.3158 21.3158 18.4881 21.3158 15C21.3158 11.5119 18.4881 8.68421 15 8.68421C11.5119 8.68421 8.68421 11.5119 8.68421 15C8.68421 18.4881 11.5119 21.3158 15 21.3158Z" fill="#1C4B56"/>
<path fill-rule="evenodd" clip-rule="evenodd" d="M15 26.1905C21.1803 26.1905 26.1905 21.1804 26.1905 15C26.1905 8.81972 21.1803 3.80957 15 3.80957C8.81965 3.80957 3.80951 8.81972 3.80951 15C3.80951 21.1804 8.81965 26.1905 15 26.1905ZM15 21.3158C18.4881 21.3158 21.3158 18.4881 21.3158 15C21.3158 11.5119 18.4881 8.68425 15 8.68425C11.5119 8.68425 8.68419 11.5119 8.68419 15C8.68419 18.4881 11.5119 21.3158 15 21.3158Z" fill="#348CA2"/>
<rect x="21.3158" y="12.6316" width="8.68421" height="16.5789" fill="#70BED1" fill-opacity="0.85"/>
</svg>
