<svg width="70" height="70" viewBox="0 0 70 70" fill="none" xmlns="http://www.w3.org/2000/svg">
<circle cx="37.5" cy="37.5" r="24.5" fill="white"/>
<path fill-rule="evenodd" clip-rule="evenodd" d="M35 70C54.33 70 70 54.33 70 35C70 15.67 54.33 0 35 0C15.67 0 0 15.67 0 35C0 54.33 15.67 70 35 70ZM35 49.737C43.139 49.737 49.7369 43.1391 49.7369 35.0002C49.7369 26.8612 43.139 20.2633 35 20.2633C26.8611 20.2633 20.2632 26.8612 20.2632 35.0002C20.2632 43.1391 26.8611 49.737 35 49.737Z" fill="#1C4B56"/>
<path fill-rule="evenodd" clip-rule="evenodd" d="M35 61.1111C49.4208 61.1111 61.1111 49.4208 61.1111 35C61.1111 20.5793 49.4208 8.88892 35 8.88892C20.5792 8.88892 8.88889 20.5793 8.88889 35C8.88889 49.4208 20.5792 61.1111 35 61.1111ZM35 49.737C43.1389 49.737 49.7369 43.1391 49.7369 35.0002C49.7369 26.8612 43.1389 20.2633 35 20.2633C26.8611 20.2633 20.2632 26.8612 20.2632 35.0002C20.2632 43.1391 26.8611 49.737 35 49.737Z" fill="#348CA2"/>
<rect x="49.7368" y="29.4736" width="20.2632" height="38.6842" fill="#70BED1" fill-opacity="0.85"/>
</svg>
